<?xml version="1.0" standalone="no"?>
<!DOCTYPE svg PUBLIC "-//W3C//DTD SVG 20010904//EN"
        "http://www.w3.org/TR/2001/REC-SVG-20010904/DTD/svg10.dtd">
<svg version="1.0" xmlns="http://www.w3.org/2000/svg"
     width="2250.000000pt" height="2250.000000pt" viewBox="0 0 2250.000000 2250.000000"
     preserveAspectRatio="xMidYMid meet">

    <g transform="translate(0.000000,2250.000000) scale(0.100000,-0.100000)"
       fill="#000000" stroke="none">
        <path d="M7750 20338 c-314 -15 -624 -113 -932 -295 -109 -65 -148 -102 -148
-142 0 -40 20 -87 53 -127 15 -18 27 -34 27 -37 0 -3 -25 -11 -55 -17 -31 -6
-68 -22 -83 -35 l-27 -23 2 -143 c1 -79 5 -522 8 -983 6 -717 9 -844 21 -869
16 -30 67 -57 108 -57 22 0 25 -5 31 -55 4 -31 6 -58 3 -60 -2 -2 -71 7 -153
20 -331 53 -972 83 -1400 65 -243 -10 -720 -59 -843 -86 -63 -13 -76 -20 -90
-45 -16 -27 -20 -29 -63 -23 -58 8 -147 -17 -177 -49 -20 -21 -22 -31 -17 -88
2 -35 9 -145 15 -244 10 -170 13 -204 25 -299 4 -28 1 -44 -12 -58 -17 -19
-18 -98 -21 -1538 l-2 -1517 29 -37 c53 -67 83 -268 62 -415 -17 -113 -32
-154 -62 -161 l-24 -6 -3 -4097 -2 -4097 -655 0 -656 0 -24 -26 -25 -27 0
-998 c0 -986 0 -999 20 -1019 11 -11 32 -20 47 -20 956 0 18342 4 18370 4 23
1 48 7 55 14 10 10 14 201 16 970 2 526 0 985 -3 1020 -5 47 -11 65 -26 72
-12 7 -292 10 -806 10 l-788 0 80 72 c44 40 125 120 179 178 55 58 161 166
237 240 75 74 140 145 143 156 4 12 -1 43 -9 68 l-16 47 35 40 c29 31 36 47
36 80 0 38 -231 401 -2691 4245 -2444 3817 -2695 4205 -2723 4212 -17 5 -47 4
-66 0 -94 -24 -91 -26 -59 47 13 28 18 56 15 71 -4 14 -57 73 -118 132 -124
119 -267 278 -419 464 -240 294 -425 479 -584 584 -96 64 -110 65 -210 15 -44
-22 -66 -28 -95 -24 -69 10 -82 0 -155 -109 -85 -128 -233 -307 -340 -413
-115 -113 -236 -196 -414 -284 -154 -75 -177 -82 -322 -97 l-56 -6 -6 38 c-4
22 -7 445 -7 941 0 642 -3 909 -11 927 -12 25 -60 50 -116 61 -25 5 -34 14
-43 40 -9 28 -20 37 -74 58 -90 37 -220 71 -306 82 -19 3 -55 9 -80 15 -54 12
-343 35 -642 51 -348 19 -941 -9 -1208 -56 -47 -8 -95 -15 -107 -15 l-23 0 0
1513 0 1513 -21 23 c-31 33 -80 51 -139 51 -44 0 -50 2 -50 21 0 12 13 37 30
55 42 48 58 108 39 143 -34 61 -205 167 -351 217 -77 26 -375 89 -468 99 -30
3 -68 8 -84 11 -52 11 -438 19 -576 12z m862 -800 c19 -44 16 -61 -6 -37 -15
16 -30 79 -18 79 4 0 15 -19 24 -42z m-522 -1454 c18 -11 44 -25 57 -32 85
-47 182 -388 183 -643 0 -169 -77 -386 -179 -500 -91 -102 -204 -141 -294
-101 -75 33 -170 138 -221 245 -25 51 -47 108 -51 127 -4 19 -17 67 -30 105
-31 96 -38 182 -25 306 25 247 101 383 261 469 94 50 233 61 299 24z m2894
-1684 c330 -26 516 -56 629 -104 l37 -15 2 -843 c2 -464 2 -3177 0 -6030 l-2
-5187 -108 -34 c-203 -65 -516 -112 -912 -137 -468 -29 -638 -9 -1110 133
l-145 43 0 4914 c0 2703 1 5037 2 5185 0 149 -1 662 -3 1142 l-5 871 53 7 c29
4 89 13 133 20 342 57 950 72 1429 35z m2522 -1293 c88 -70 226 -218 408 -437
171 -206 244 -288 380 -427 l119 -122 -56 -55 c-125 -121 -621 -537 -987 -827
-390 -309 -518 -390 -970 -613 -258 -127 -331 -155 -437 -170 l-43 -6 0 682
c1 376 5 715 10 753 5 39 12 138 16 220 4 83 9 144 12 137 6 -20 57 -42 81
-35 12 3 40 0 61 -7 37 -12 47 -10 147 25 276 95 584 286 779 481 94 94 266
298 333 396 25 37 51 67 56 68 6 0 47 -28 91 -63z m3744 -5322 c1426 -2227
2606 -4072 2623 -4098 l30 -49 -109 -106 c-60 -59 -172 -173 -249 -253 -157
-163 -227 -221 -503 -414 -262 -184 -326 -223 -553 -336 -202 -101 -362 -170
-509 -221 -143 -49 -623 -189 -638 -186 -7 2 -666 1022 -1464 2268 -797 1246
-1893 2957 -2434 3802 -541 846 -984 1544 -984 1553 0 27 -40 97 -109 190 -53
72 -131 209 -131 231 0 3 19 13 43 23 23 10 171 82 329 160 447 221 588 311
1019 653 353 281 913 753 993 837 27 28 30 29 41 13 7 -9 1179 -1839 2605
-4067z m-10695 3918 c-3 -10 -13 -65 -22 -123 -13 -87 -13 -123 -4 -220 7 -63
14 -127 17 -141 6 -26 5 -26 -83 -38 -197 -26 -764 -71 -1008 -81 -312 -12
-1018 -30 -1022 -26 -2 2 2 38 8 82 12 81 6 259 -11 344 -4 25 -6 47 -4 49 4
4 114 9 619 31 275 12 529 32 674 55 91 13 300 32 616 55 83 6 164 14 180 19
44 13 48 13 40 -6z m5514 -1978 c18 -33 84 -136 146 -230 145 -219 3691 -5757
3720 -5810 12 -22 139 -224 283 -448 144 -225 262 -410 262 -413 0 -2 -1010
-4 -2243 -4 l-2244 0 -6 542 c-4 298 -7 1885 -7 3527 l0 2986 28 -45 c16 -25
43 -72 61 -105z m-8049 -6975 c0 -7 -215 -10 -624 -10 -406 0 -627 4 -631 10
-4 7 207 10 624 10 414 0 631 -3 631 -10z m12519 -12 c41 -66 44 -74 17 -43
-14 17 -26 33 -26 38 0 4 -1021 7 -2270 7 -1507 0 -2270 3 -2270 10 0 7 763
10 2268 10 l2267 0 14 -22z m4541 -963 l0 -985 -9161 0 c-6104 0 -9158 3
-9154 10 4 7 3065 10 9151 10 l9144 0 0 965 0 965 -810 -2 c-650 -2 -807 -1
-793 10 13 9 193 12 820 12 l803 0 0 -985z m-4468 848 c14 -21 33 -51 42 -68
l18 -30 -25 29 c-25 29 -72 106 -64 106 2 0 15 -17 29 -37z m129 -200 c34 -54
69 -108 77 -120 8 -13 11 -23 8 -23 -6 0 -120 172 -145 218 -28 52 2 14 60
-75z m193 -303 c80 -125 96 -157 95 -188 l-2 -37 -6 41 c-5 27 -35 85 -88 166
-85 131 -107 168 -99 168 2 0 47 -68 100 -150z m1766 135 c0 -6 -97 -55 -107
-55 -4 1 17 14 47 30 61 32 60 32 60 25z m-11789 -146 c-5 -13 -14 -40 -19
-59 -10 -34 -10 -33 -11 22 -1 46 2 57 17 60 23 6 24 4 13 -23z m-2849 -21
c-7 -7 -12 -8 -12 -2 0 6 3 14 7 17 3 4 9 5 12 2 2 -3 -1 -11 -7 -17z m7868
-83 c-7 -8 -20 -15 -29 -15 -11 1 -8 5 9 15 32 18 35 18 20 0z m-50 -14 c0 -5
-16 -11 -35 -13 -19 -2 -35 -1 -35 3 0 4 15 10 33 12 17 2 33 5 35 5 1 1 2 -2
2 -7z m-4920 -66 c0 -6 -33 6 -47 18 -27 21 -11 27 17 7 17 -12 30 -23 30 -25z
m2230 0 c-7 -9 -32 -30 -54 -46 -35 -27 -34 -25 9 15 51 47 67 58 45 31z
m-2120 -71 c0 -2 -9 0 -20 6 -11 6 -20 13 -20 16 0 2 9 0 20 -6 11 -6 20 -13
20 -16z m9973 6 c3 -11 1 -20 -4 -20 -5 0 -9 9 -9 20 0 11 2 20 4 20 2 0 6 -9
9 -20z m-7953 -14 c0 -2 -8 -10 -17 -17 -16 -13 -17 -12 -4 4 13 16 21 21 21
13z m-1870 -62 l25 -15 -25 7 c-14 3 -29 10 -34 15 -16 14 6 10 34 -7z m1780
1 c0 -6 -56 -35 -67 -35 -4 1 8 9 27 20 39 22 40 22 40 15z m-1720 -25 c8 -5
11 -10 5 -10 -5 0 -17 5 -25 10 -8 5 -10 10 -5 10 6 0 17 -5 25 -10z m3837 -6
c-3 -3 -12 -4 -19 -1 -8 3 -5 6 6 6 11 1 17 -2 13 -5z m-3787 -14 c8 -5 11
-10 5 -10 -5 0 -17 5 -25 10 -8 5 -10 10 -5 10 6 0 17 -5 25 -10z m3697 4 c-3
-3 -12 -4 -19 -1 -8 3 -5 6 6 6 11 1 17 -2 13 -5z m-2147 -19 c-14 -8 -32 -14
-40 -14 -8 0 -1 7 15 14 39 18 57 18 25 0z m2053 8 c-7 -2 -19 -2 -25 0 -7 3
-2 5 12 5 14 0 19 -2 13 -5z m-110 -10 c-7 -2 -19 -2 -25 0 -7 3 -2 5 12 5 14
0 19 -2 13 -5z m-766 -9 c-3 -3 -12 -4 -19 -1 -8 3 -5 6 6 6 11 1 17 -2 13 -5z
m626 -1 c-7 -2 -21 -2 -30 0 -10 3 -4 5 12 5 17 0 24 -2 18 -5z m-280 -10
c-40 -2 -107 -2 -150 0 -43 1 -10 3 72 3 83 0 118 -2 78 -3z m-2936 -9 c-3 -3
-12 -4 -19 -1 -8 3 -5 6 6 6 11 1 17 -2 13 -5z m1320 0 c-3 -3 -12 -4 -19 -1
-8 3 -5 6 6 6 11 1 17 -2 13 -5z m-3720 -20 c-3 -3 -12 -4 -19 -1 -8 3 -5 6 6
6 11 1 17 -2 13 -5z m2470 0 c-3 -3 -12 -4 -19 -1 -8 3 -5 6 6 6 11 1 17 -2
13 -5z m1180 0 c-3 -3 -12 -4 -19 -1 -8 3 -5 6 6 6 11 1 17 -2 13 -5z m-3499
-11 c-10 -2 -26 -2 -35 0 -10 3 -2 5 17 5 19 0 27 -2 18 -5z m2359 1 c-3 -3
-12 -4 -19 -1 -8 3 -5 6 6 6 11 1 17 -2 13 -5z m1100 0 c-3 -3 -12 -4 -19 -1
-8 3 -5 6 6 6 11 1 17 -2 13 -5z m-3264 -11 c-7 -2 -21 -2 -30 0 -10 3 -4 5
12 5 17 0 24 -2 18 -5z m460 0 c-7 -2 -19 -2 -25 0 -7 3 -2 5 12 5 14 0 19 -2
13 -5z m1744 1 c-3 -3 -12 -4 -19 -1 -8 3 -5 6 6 6 11 1 17 -2 13 -5z m1020 0
c-3 -3 -12 -4 -19 -1 -8 3 -5 6 6 6 11 1 17 -2 13 -5z m-980 -10 c-3 -3 -12
-4 -19 -1 -8 3 -5 6 6 6 11 1 17 -2 13 -5z m940 0 c-3 -3 -12 -4 -19 -1 -8 3
-5 6 6 6 11 1 17 -2 13 -5z m-890 -10 c-3 -3 -12 -4 -19 -1 -8 3 -5 6 6 6 11
1 17 -2 13 -5z m846 -1 c-7 -2 -19 -2 -25 0 -7 3 -2 5 12 5 14 0 19 -2 13 -5z
m-806 -9 c-3 -3 -12 -4 -19 -1 -8 3 -5 6 6 6 11 1 17 -2 13 -5z m756 -1 c-7
-2 -19 -2 -25 0 -7 3 -2 5 12 5 14 0 19 -2 13 -5z m-706 -9 c-3 -3 -12 -4 -19
-1 -8 3 -5 6 6 6 11 1 17 -2 13 -5z m650 0 c-3 -3 -12 -4 -19 -1 -8 3 -5 6 6
6 11 1 17 -2 13 -5z m-594 -11 c-7 -2 -19 -2 -25 0 -7 3 -2 5 12 5 14 0 19 -2
13 -5z m530 0 c-7 -2 -21 -2 -30 0 -10 3 -4 5 12 5 17 0 24 -2 18 -5z m-460
-10 c-7 -2 -19 -2 -25 0 -7 3 -2 5 12 5 14 0 19 -2 13 -5z m375 0 c-10 -2 -26
-2 -35 0 -10 3 -2 5 17 5 19 0 27 -2 18 -5z m-165 -10 c-23 -2 -64 -2 -90 0
-26 2 -7 3 42 3 50 0 71 -1 48 -3z"/>
        <path d="M13455 14702 c-57 -35 -61 -47 -30 -95 53 -79 142 -192 245 -307 56
-63 139 -159 183 -212 87 -105 96 -109 144 -65 52 47 43 61 -206 342 -122 137
-271 327 -271 346 0 15 -33 10 -65 -9z"/>
        <path d="M13304 14536 c-60 -26 -57 -39 45 -186 81 -117 128 -170 150 -170 20
0 81 60 81 79 0 7 -17 32 -38 56 -21 24 -67 86 -102 139 -68 103 -77 108 -136
82z"/>
        <path d="M12231 13957 c-13 -6 -24 -14 -24 -17 -1 -26 22 -149 59 -315 24
-110 65 -317 89 -460 25 -143 50 -270 56 -281 10 -20 48 -44 69 -44 6 0 19 20
31 44 l21 45 -42 243 c-23 134 -61 333 -85 443 -24 110 -50 232 -56 270 -7 39
-18 73 -23 77 -17 12 -68 9 -95 -5z"/>
        <path d="M12554 13780 c-12 -5 -25 -13 -29 -19 -3 -6 8 -80 24 -164 17 -83 37
-194 45 -245 8 -51 18 -97 22 -103 9 -16 92 -5 111 14 14 13 14 26 -1 114 -45
267 -70 389 -85 401 -17 14 -56 15 -87 2z"/>
        <path d="M15600 7792 c0 -7 21 -34 46 -60 30 -31 39 -37 26 -17 -37 53 -71 90
-72 77z"/>
    </g>
</svg>
